<?xml version="1.0" encoding="UTF-8"?>
<svg xmlns="http://www.w3.org/2000/svg" viewBox="0 0 240 160">
<defs><linearGradient id="sky" x1="0" y1="0" x2="0" y2="1"><stop offset="0" stop-color="#eaf6ff"/><stop offset="1" stop-color="#e4f3df"/></linearGradient></defs><rect width="240" height="160" fill="url(#sky)"/><rect y="118" width="240" height="42" fill="#cfe9c2"/><rect x="48" y="48" width="8" height="8" rx="2" fill="#c8f0c8" stroke="#2b2b2b" stroke-width="1.5"/><rect x="48" y="57" width="8" height="8" rx="2" fill="#c8f0c8" stroke="#2b2b2b" stroke-width="1.5"/><rect x="48" y="66" width="8" height="8" rx="2" fill="#c8f0c8" stroke="#2b2b2b" stroke-width="1.5"/><rect x="48" y="75" width="8" height="8" rx="2" fill="#c8f0c8" stroke="#2b2b2b" stroke-width="1.5"/><rect x="48" y="84" width="8" height="8" rx="2" fill="#c8f0c8" stroke="#2b2b2b" stroke-width="1.5"/><rect x="48" y="93" width="8" height="8" rx="2" fill="#c8f0c8" stroke="#2b2b2b" stroke-width="1.5"/><rect x="48" y="102" width="8" height="8" rx="2" fill="#c8f0c8" stroke="#2b2b2b" stroke-width="1.5"/><rect x="48" y="111" width="8" height="8" rx="2" fill="#c8f0c8" stroke="#2b2b2b" stroke-width="1.5"/><rect x="48" y="120" width="8" height="8" rx="2" fill="#c8f0c8" stroke="#2b2b2b" stroke-width="1.5"/><rect x="48" y="129" width="8" height="8" rx="2" fill="#fff" stroke="#2b2b2b" stroke-width="1.5"/><rect x="57" y="48" width="8" height="8" rx="2" fill="#c8f0c8" stroke="#2b2b2b" stroke-width="1.5"/><rect x="57" y="57" width="8" height="8" rx="2" fill="#c8f0c8" stroke="#2b2b2b" stroke-width="1.5"/><rect x="57" y="66" width="8" height="8" rx="2" fill="#c8f0c8" stroke="#2b2b2b" stroke-width="1.5"/><rect x="57" y="75" width="8" height="8" rx="2" fill="#c8f0c8" stroke="#2b2b2b" stroke-width="1.5"/><rect x="57" y="84" width="8" height="8" rx="2" fill="#c8f0c8" stroke="#2b2b2b" stroke-width="1.5"/><rect x="57" y="93" width="8" height="8" rx="2" fill="#c8f0c8" stroke="#2b2b2b" stroke-width="1.5"/><rect x="57" y="102" width="8" height="8" rx="2" fill="#c8f0c8" stroke="#2b2b2b" stroke-width="1.5"/><rect x="57" y="111" width="8" height="8" rx="2" fill="#c8f0c8" stroke="#2b2b2b" stroke-width="1.5"/><rect x="57" y="120" width="8" height="8" rx="2" fill="#c8f0c8" stroke="#2b2b2b" stroke-width="1.5"/><rect x="57" y="129" width="8" height="8" rx="2" fill="#fff" stroke="#2b2b2b" stroke-width="1.5"/><rect x="66" y="48" width="8" height="8" rx="2" fill="#c8f0c8" stroke="#2b2b2b" stroke-width="1.5"/><rect x="66" y="57" width="8" height="8" rx="2" fill="#c8f0c8" stroke="#2b2b2b" stroke-width="1.5"/><rect x="66" y="66" width="8" height="8" rx="2" fill="#c8f0c8" stroke="#2b2b2b" stroke-width="1.5"/><rect x="66" y="75" width="8" height="8" rx="2" fill="#c8f0c8" stroke="#2b2b2b" stroke-width="1.5"/><rect x="66" y="84" width="8" height="8" rx="2" fill="#c8f0c8" stroke="#2b2b2b" stroke-width="1.5"/><rect x="66" y="93" width="8" height="8" rx="2" fill="#c8f0c8" stroke="#2b2b2b" stroke-width="1.5"/><rect x="66" y="102" width="8" height="8" rx="2" fill="#c8f0c8" stroke="#2b2b2b" stroke-width="1.5"/><rect x="66" y="111" width="8" height="8" rx="2" fill="#c8f0c8" stroke="#2b2b2b" stroke-width="1.5"/><rect x="66" y="120" width="8" height="8" rx="2" fill="#c8f0c8" stroke="#2b2b2b" stroke-width="1.5"/><rect x="66" y="129" width="8" height="8" rx="2" fill="#fff" stroke="#2b2b2b" stroke-width="1.5"/><rect x="75" y="48" width="8" height="8" rx="2" fill="#c8f0c8" stroke="#2b2b2b" stroke-width="1.5"/><rect x="75" y="57" width="8" height="8" rx="2" fill="#c8f0c8" stroke="#2b2b2b" stroke-width="1.5"/><rect x="75" y="66" width="8" height="8" rx="2" fill="#c8f0c8" stroke="#2b2b2b" stroke-width="1.5"/><rect x="75" y="75" width="8" height="8" rx="2" fill="#c8f0c8" stroke="#2b2b2b" stroke-width="1.5"/><rect x="75" y="84" width="8" height="8" rx="2" fill="#c8f0c8" stroke="#2b2b2b" stroke-width="1.5"/><rect x="75" y="93" width="8" height="8" rx="2" fill="#c8f0c8" stroke="#2b2b2b" stroke-width="1.5"/><rect x="75" y="102" width="8" height="8" rx="2" fill="#c8f0c8" stroke="#2b2b2b" stroke-width="1.5"/><rect x="75" y="111" width="8" height="8" rx="2" fill="#c8f0c8" stroke="#2b2b2b" stroke-width="1.5"/><rect x="75" y="120" width="8" height="8" rx="2" fill="#c8f0c8" stroke="#2b2b2b" stroke-width="1.5"/><rect x="75" y="129" width="8" height="8" rx="2" fill="#fff" stroke="#2b2b2b" stroke-width="1.5"/><rect x="84" y="48" width="8" height="8" rx="2" fill="#c8f0c8" stroke="#2b2b2b" stroke-width="1.5"/><rect x="84" y="57" width="8" height="8" rx="2" fill="#c8f0c8" stroke="#2b2b2b" stroke-width="1.5"/><rect x="84" y="66" width="8" height="8" rx="2" fill="#c8f0c8" stroke="#2b2b2b" stroke-width="1.5"/><rect x="84" y="75" width="8" height="8" rx="2" fill="#c8f0c8" stroke="#2b2b2b" stroke-width="1.5"/><rect x="84" y="84" width="8" height="8" rx="2" fill="#c8f0c8" stroke="#2b2b2b" stroke-width="1.5"/><rect x="84" y="93" width="8" height="8" rx="2" fill="#c8f0c8" stroke="#2b2b2b" stroke-width="1.5"/><rect x="84" y="102" width="8" height="8" rx="2" fill="#c8f0c8" stroke="#2b2b2b" stroke-width="1.5"/><rect x="84" y="111" width="8" height="8" rx="2" fill="#c8f0c8" stroke="#2b2b2b" stroke-width="1.5"/><rect x="84" y="120" width="8" height="8" rx="2" fill="#c8f0c8" stroke="#2b2b2b" stroke-width="1.5"/><rect x="84" y="129" width="8" height="8" rx="2" fill="#fff" stroke="#2b2b2b" stroke-width="1.5"/><rect x="93" y="48" width="8" height="8" rx="2" fill="#c8f0c8" stroke="#2b2b2b" stroke-width="1.5"/><rect x="93" y="57" width="8" height="8" rx="2" fill="#c8f0c8" stroke="#2b2b2b" stroke-width="1.5"/><rect x="93" y="66" width="8" height="8" rx="2" fill="#c8f0c8" stroke="#2b2b2b" stroke-width="1.5"/><rect x="93" y="75" width="8" height="8" rx="2" fill="#c8f0c8" stroke="#2b2b2b" stroke-width="1.5"/><rect x="93" y="84" width="8" height="8" rx="2" fill="#c8f0c8" stroke="#2b2b2b" stroke-width="1.5"/><rect x="93" y="93" width="8" height="8" rx="2" fill="#c8f0c8" stroke="#2b2b2b" stroke-width="1.5"/><rect x="93" y="102" width="8" height="8" rx="2" fill="#c8f0c8" stroke="#2b2b2b" stroke-width="1.5"/><rect x="93" y="111" width="8" height="8" rx="2" fill="#c8f0c8" stroke="#2b2b2b" stroke-width="1.5"/><rect x="93" y="120" width="8" height="8" rx="2" fill="#c8f0c8" stroke="#2b2b2b" stroke-width="1.5"/><rect x="93" y="129" width="8" height="8" rx="2" fill="#fff" stroke="#2b2b2b" stroke-width="1.5"/><rect x="102" y="48" width="8" height="8" rx="2" fill="#c8f0c8" stroke="#2b2b2b" stroke-width="1.5"/><rect x="102" y="57" width="8" height="8" rx="2" fill="#c8f0c8" stroke="#2b2b2b" stroke-width="1.5"/><rect x="102" y="66" width="8" height="8" rx="2" fill="#c8f0c8" stroke="#2b2b2b" stroke-width="1.5"/><rect x="102" y="75" width="8" height="8" rx="2" fill="#c8f0c8" stroke="#2b2b2b" stroke-width="1.5"/><rect x="102" y="84" width="8" height="8" rx="2" fill="#c8f0c8" stroke="#2b2b2b" stroke-width="1.5"/><rect x="102" y="93" width="8" height="8" rx="2" fill="#c8f0c8" stroke="#2b2b2b" stroke-width="1.5"/><rect x="102" y="102" width="8" height="8" rx="2" fill="#c8f0c8" stroke="#2b2b2b" stroke-width="1.5"/><rect x="102" y="111" width="8" height="8" rx="2" fill="#c8f0c8" stroke="#2b2b2b" stroke-width="1.5"/><rect x="102" y="120" width="8" height="8" rx="2" fill="#c8f0c8" stroke="#2b2b2b" stroke-width="1.5"/><rect x="102" y="129" width="8" height="8" rx="2" fill="#fff" stroke="#2b2b2b" stroke-width="1.5"/><rect x="111" y="48" width="8" height="8" rx="2" fill="#c8f0c8" stroke="#2b2b2b" stroke-width="1.5"/><rect x="111" y="57" width="8" height="8" rx="2" fill="#c8f0c8" stroke="#2b2b2b" stroke-width="1.5"/><rect x="111" y="66" width="8" height="8" rx="2" fill="#c8f0c8" stroke="#2b2b2b" stroke-width="1.5"/><rect x="111" y="75" width="8" height="8" rx="2" fill="#c8f0c8" stroke="#2b2b2b" stroke-width="1.5"/><rect x="111" y="84" width="8" height="8" rx="2" fill="#c8f0c8" stroke="#2b2b2b" stroke-width="1.5"/><rect x="111" y="93" width="8" height="8" rx="2" fill="#c8f0c8" stroke="#2b2b2b" stroke-width="1.5"/><rect x="111" y="102" width="8" height="8" rx="2" fill="#c8f0c8" stroke="#2b2b2b" stroke-width="1.5"/><rect x="111" y="111" width="8" height="8" rx="2" fill="#c8f0c8" stroke="#2b2b2b" stroke-width="1.5"/><rect x="111" y="120" width="8" height="8" rx="2" fill="#c8f0c8" stroke="#2b2b2b" stroke-width="1.5"/><rect x="111" y="129" width="8" height="8" rx="2" fill="#fff" stroke="#2b2b2b" stroke-width="1.5"/><rect x="120" y="48" width="8" height="8" rx="2" fill="#c8f0c8" stroke="#2b2b2b" stroke-width="1.5"/><rect x="120" y="57" width="8" height="8" rx="2" fill="#c8f0c8" stroke="#2b2b2b" stroke-width="1.5"/><rect x="120" y="66" width="8" height="8" rx="2" fill="#c8f0c8" stroke="#2b2b2b" stroke-width="1.5"/><rect x="120" y="75" width="8" height="8" rx="2" fill="#c8f0c8" stroke="#2b2b2b" stroke-width="1.5"/><rect x="120" y="84" width="8" height="8" rx="2" fill="#c8f0c8" stroke="#2b2b2b" stroke-width="1.5"/><rect x="120" y="93" width="8" height="8" rx="2" fill="#c8f0c8" stroke="#2b2b2b" stroke-width="1.5"/><rect x="120" y="102" width="8" height="8" rx="2" fill="#c8f0c8" stroke="#2b2b2b" stroke-width="1.5"/><rect x="120" y="111" width="8" height="8" rx="2" fill="#c8f0c8" stroke="#2b2b2b" stroke-width="1.5"/><rect x="120" y="120" width="8" height="8" rx="2" fill="#c8f0c8" stroke="#2b2b2b" stroke-width="1.5"/><rect x="120" y="129" width="8" height="8" rx="2" fill="#fff" stroke="#2b2b2b" stroke-width="1.5"/><rect x="129" y="48" width="8" height="8" rx="2" fill="#c8f0c8" stroke="#2b2b2b" stroke-width="1.5"/><rect x="129" y="57" width="8" height="8" rx="2" fill="#c8f0c8" stroke="#2b2b2b" stroke-width="1.5"/><rect x="129" y="66" width="8" height="8" rx="2" fill="#c8f0c8" stroke="#2b2b2b" stroke-width="1.5"/><rect x="129" y="75" width="8" height="8" rx="2" fill="#c8f0c8" stroke="#2b2b2b" stroke-width="1.5"/><rect x="129" y="84" width="8" height="8" rx="2" fill="#c8f0c8" stroke="#2b2b2b" stroke-width="1.5"/><rect x="129" y="93" width="8" height="8" rx="2" fill="#c8f0c8" stroke="#2b2b2b" stroke-width="1.5"/><rect x="129" y="102" width="8" height="8" rx="2" fill="#c8f0c8" stroke="#2b2b2b" stroke-width="1.5"/><rect x="129" y="111" width="8" height="8" rx="2" fill="#c8f0c8" stroke="#2b2b2b" stroke-width="1.5"/><rect x="129" y="120" width="8" height="8" rx="2" fill="#c8f0c8" stroke="#2b2b2b" stroke-width="1.5"/><rect x="129" y="129" width="8" height="8" rx="2" fill="#fff" stroke="#2b2b2b" stroke-width="1.5"/><text x="120" y="150" text-anchor="middle" font-size="11" fill="#333" font-family="PingFang SC, Microsoft YaHei, sans-serif">发芽率 90%</text><circle cx="218" cy="26" r="12" fill="#ffe08a" stroke="#2b2b2b" stroke-width="1.5"/><circle cx="214" cy="22" r="12" fill="#ffe08a" stroke="#2b2b2b" stroke-width="1.5"/><line x1="210" y1="38" x2="200" y2="46" stroke="#caa" stroke-width="1"/><line x1="226" y1="38" x2="236" y2="46" stroke="#caa" stroke-width="1"/><circle cx="28" cy="120" r="11" fill="#ffd9a0" stroke="#2b2b2b" stroke-width="1.5"/><rect x="18" y="131" width="20" height="22" rx="6" fill="#5dade2" stroke="#2b2b2b" stroke-width="1.5"/>
</svg>
