<?xml version="1.0" encoding="UTF-8"?>
<svg xmlns="http://www.w3.org/2000/svg" viewBox="0 0 240 160">
<rect width="240" height="160" fill="#ffffff"/><rect x="48" y="48" width="8" height="8" rx="2" fill="#eef3f7" stroke="#333" stroke-width="1.5"/><rect x="48" y="57" width="8" height="8" rx="2" fill="#eef3f7" stroke="#333" stroke-width="1.5"/><rect x="48" y="66" width="8" height="8" rx="2" fill="#eef3f7" stroke="#333" stroke-width="1.5"/><rect x="48" y="75" width="8" height="8" rx="2" fill="#eef3f7" stroke="#333" stroke-width="1.5"/><rect x="48" y="84" width="8" height="8" rx="2" fill="#eef3f7" stroke="#333" stroke-width="1.5"/><rect x="48" y="93" width="8" height="8" rx="2" fill="#eef3f7" stroke="#333" stroke-width="1.5"/><rect x="48" y="102" width="8" height="8" rx="2" fill="#eef3f7" stroke="#333" stroke-width="1.5"/><rect x="48" y="111" width="8" height="8" rx="2" fill="#eef3f7" stroke="#333" stroke-width="1.5"/><rect x="48" y="120" width="8" height="8" rx="2" fill="#eef3f7" stroke="#333" stroke-width="1.5"/><rect x="48" y="129" width="8" height="8" rx="2" fill="#fff" stroke="#333" stroke-width="1.5"/><rect x="57" y="48" width="8" height="8" rx="2" fill="#eef3f7" stroke="#333" stroke-width="1.5"/><rect x="57" y="57" width="8" height="8" rx="2" fill="#eef3f7" stroke="#333" stroke-width="1.5"/><rect x="57" y="66" width="8" height="8" rx="2" fill="#eef3f7" stroke="#333" stroke-width="1.5"/><rect x="57" y="75" width="8" height="8" rx="2" fill="#eef3f7" stroke="#333" stroke-width="1.5"/><rect x="57" y="84" width="8" height="8" rx="2" fill="#eef3f7" stroke="#333" stroke-width="1.5"/><rect x="57" y="93" width="8" height="8" rx="2" fill="#eef3f7" stroke="#333" stroke-width="1.5"/><rect x="57" y="102" width="8" height="8" rx="2" fill="#eef3f7" stroke="#333" stroke-width="1.5"/><rect x="57" y="111" width="8" height="8" rx="2" fill="#eef3f7" stroke="#333" stroke-width="1.5"/><rect x="57" y="120" width="8" height="8" rx="2" fill="#eef3f7" stroke="#333" stroke-width="1.5"/><rect x="57" y="129" width="8" height="8" rx="2" fill="#fff" stroke="#333" stroke-width="1.5"/><rect x="66" y="48" width="8" height="8" rx="2" fill="#eef3f7" stroke="#333" stroke-width="1.5"/><rect x="66" y="57" width="8" height="8" rx="2" fill="#eef3f7" stroke="#333" stroke-width="1.5"/><rect x="66" y="66" width="8" height="8" rx="2" fill="#eef3f7" stroke="#333" stroke-width="1.5"/><rect x="66" y="75" width="8" height="8" rx="2" fill="#eef3f7" stroke="#333" stroke-width="1.5"/><rect x="66" y="84" width="8" height="8" rx="2" fill="#eef3f7" stroke="#333" stroke-width="1.5"/><rect x="66" y="93" width="8" height="8" rx="2" fill="#eef3f7" stroke="#333" stroke-width="1.5"/><rect x="66" y="102" width="8" height="8" rx="2" fill="#eef3f7" stroke="#333" stroke-width="1.5"/><rect x="66" y="111" width="8" height="8" rx="2" fill="#eef3f7" stroke="#333" stroke-width="1.5"/><rect x="66" y="120" width="8" height="8" rx="2" fill="#eef3f7" stroke="#333" stroke-width="1.5"/><rect x="66" y="129" width="8" height="8" rx="2" fill="#fff" stroke="#333" stroke-width="1.5"/><rect x="75" y="48" width="8" height="8" rx="2" fill="#eef3f7" stroke="#333" stroke-width="1.5"/><rect x="75" y="57" width="8" height="8" rx="2" fill="#eef3f7" stroke="#333" stroke-width="1.5"/><rect x="75" y="66" width="8" height="8" rx="2" fill="#eef3f7" stroke="#333" stroke-width="1.5"/><rect x="75" y="75" width="8" height="8" rx="2" fill="#eef3f7" stroke="#333" stroke-width="1.5"/><rect x="75" y="84" width="8" height="8" rx="2" fill="#eef3f7" stroke="#333" stroke-width="1.5"/><rect x="75" y="93" width="8" height="8" rx="2" fill="#eef3f7" stroke="#333" stroke-width="1.5"/><rect x="75" y="102" width="8" height="8" rx="2" fill="#eef3f7" stroke="#333" stroke-width="1.5"/><rect x="75" y="111" width="8" height="8" rx="2" fill="#eef3f7" stroke="#333" stroke-width="1.5"/><rect x="75" y="120" width="8" height="8" rx="2" fill="#eef3f7" stroke="#333" stroke-width="1.5"/><rect x="75" y="129" width="8" height="8" rx="2" fill="#fff" stroke="#333" stroke-width="1.5"/><rect x="84" y="48" width="8" height="8" rx="2" fill="#eef3f7" stroke="#333" stroke-width="1.5"/><rect x="84" y="57" width="8" height="8" rx="2" fill="#eef3f7" stroke="#333" stroke-width="1.5"/><rect x="84" y="66" width="8" height="8" rx="2" fill="#eef3f7" stroke="#333" stroke-width="1.5"/><rect x="84" y="75" width="8" height="8" rx="2" fill="#eef3f7" stroke="#333" stroke-width="1.5"/><rect x="84" y="84" width="8" height="8" rx="2" fill="#eef3f7" stroke="#333" stroke-width="1.5"/><rect x="84" y="93" width="8" height="8" rx="2" fill="#eef3f7" stroke="#333" stroke-width="1.5"/><rect x="84" y="102" width="8" height="8" rx="2" fill="#eef3f7" stroke="#333" stroke-width="1.5"/><rect x="84" y="111" width="8" height="8" rx="2" fill="#eef3f7" stroke="#333" stroke-width="1.5"/><rect x="84" y="120" width="8" height="8" rx="2" fill="#eef3f7" stroke="#333" stroke-width="1.5"/><rect x="84" y="129" width="8" height="8" rx="2" fill="#fff" stroke="#333" stroke-width="1.5"/><rect x="93" y="48" width="8" height="8" rx="2" fill="#eef3f7" stroke="#333" stroke-width="1.5"/><rect x="93" y="57" width="8" height="8" rx="2" fill="#eef3f7" stroke="#333" stroke-width="1.5"/><rect x="93" y="66" width="8" height="8" rx="2" fill="#eef3f7" stroke="#333" stroke-width="1.5"/><rect x="93" y="75" width="8" height="8" rx="2" fill="#eef3f7" stroke="#333" stroke-width="1.5"/><rect x="93" y="84" width="8" height="8" rx="2" fill="#eef3f7" stroke="#333" stroke-width="1.5"/><rect x="93" y="93" width="8" height="8" rx="2" fill="#eef3f7" stroke="#333" stroke-width="1.5"/><rect x="93" y="102" width="8" height="8" rx="2" fill="#eef3f7" stroke="#333" stroke-width="1.5"/><rect x="93" y="111" width="8" height="8" rx="2" fill="#eef3f7" stroke="#333" stroke-width="1.5"/><rect x="93" y="120" width="8" height="8" rx="2" fill="#eef3f7" stroke="#333" stroke-width="1.5"/><rect x="93" y="129" width="8" height="8" rx="2" fill="#fff" stroke="#333" stroke-width="1.5"/><rect x="102" y="48" width="8" height="8" rx="2" fill="#eef3f7" stroke="#333" stroke-width="1.5"/><rect x="102" y="57" width="8" height="8" rx="2" fill="#eef3f7" stroke="#333" stroke-width="1.5"/><rect x="102" y="66" width="8" height="8" rx="2" fill="#eef3f7" stroke="#333" stroke-width="1.5"/><rect x="102" y="75" width="8" height="8" rx="2" fill="#eef3f7" stroke="#333" stroke-width="1.5"/><rect x="102" y="84" width="8" height="8" rx="2" fill="#eef3f7" stroke="#333" stroke-width="1.5"/><rect x="102" y="93" width="8" height="8" rx="2" fill="#eef3f7" stroke="#333" stroke-width="1.5"/><rect x="102" y="102" width="8" height="8" rx="2" fill="#eef3f7" stroke="#333" stroke-width="1.5"/><rect x="102" y="111" width="8" height="8" rx="2" fill="#eef3f7" stroke="#333" stroke-width="1.5"/><rect x="102" y="120" width="8" height="8" rx="2" fill="#eef3f7" stroke="#333" stroke-width="1.5"/><rect x="102" y="129" width="8" height="8" rx="2" fill="#fff" stroke="#333" stroke-width="1.5"/><rect x="111" y="48" width="8" height="8" rx="2" fill="#eef3f7" stroke="#333" stroke-width="1.5"/><rect x="111" y="57" width="8" height="8" rx="2" fill="#eef3f7" stroke="#333" stroke-width="1.5"/><rect x="111" y="66" width="8" height="8" rx="2" fill="#eef3f7" stroke="#333" stroke-width="1.5"/><rect x="111" y="75" width="8" height="8" rx="2" fill="#eef3f7" stroke="#333" stroke-width="1.5"/><rect x="111" y="84" width="8" height="8" rx="2" fill="#eef3f7" stroke="#333" stroke-width="1.5"/><rect x="111" y="93" width="8" height="8" rx="2" fill="#eef3f7" stroke="#333" stroke-width="1.5"/><rect x="111" y="102" width="8" height="8" rx="2" fill="#eef3f7" stroke="#333" stroke-width="1.5"/><rect x="111" y="111" width="8" height="8" rx="2" fill="#eef3f7" stroke="#333" stroke-width="1.5"/><rect x="111" y="120" width="8" height="8" rx="2" fill="#eef3f7" stroke="#333" stroke-width="1.5"/><rect x="111" y="129" width="8" height="8" rx="2" fill="#fff" stroke="#333" stroke-width="1.5"/><rect x="120" y="48" width="8" height="8" rx="2" fill="#eef3f7" stroke="#333" stroke-width="1.5"/><rect x="120" y="57" width="8" height="8" rx="2" fill="#eef3f7" stroke="#333" stroke-width="1.5"/><rect x="120" y="66" width="8" height="8" rx="2" fill="#eef3f7" stroke="#333" stroke-width="1.5"/><rect x="120" y="75" width="8" height="8" rx="2" fill="#eef3f7" stroke="#333" stroke-width="1.5"/><rect x="120" y="84" width="8" height="8" rx="2" fill="#eef3f7" stroke="#333" stroke-width="1.5"/><rect x="120" y="93" width="8" height="8" rx="2" fill="#eef3f7" stroke="#333" stroke-width="1.5"/><rect x="120" y="102" width="8" height="8" rx="2" fill="#eef3f7" stroke="#333" stroke-width="1.5"/><rect x="120" y="111" width="8" height="8" rx="2" fill="#eef3f7" stroke="#333" stroke-width="1.5"/><rect x="120" y="120" width="8" height="8" rx="2" fill="#eef3f7" stroke="#333" stroke-width="1.5"/><rect x="120" y="129" width="8" height="8" rx="2" fill="#fff" stroke="#333" stroke-width="1.5"/><rect x="129" y="48" width="8" height="8" rx="2" fill="#eef3f7" stroke="#333" stroke-width="1.5"/><rect x="129" y="57" width="8" height="8" rx="2" fill="#eef3f7" stroke="#333" stroke-width="1.5"/><rect x="129" y="66" width="8" height="8" rx="2" fill="#eef3f7" stroke="#333" stroke-width="1.5"/><rect x="129" y="75" width="8" height="8" rx="2" fill="#eef3f7" stroke="#333" stroke-width="1.5"/><rect x="129" y="84" width="8" height="8" rx="2" fill="#eef3f7" stroke="#333" stroke-width="1.5"/><rect x="129" y="93" width="8" height="8" rx="2" fill="#eef3f7" stroke="#333" stroke-width="1.5"/><rect x="129" y="102" width="8" height="8" rx="2" fill="#eef3f7" stroke="#333" stroke-width="1.5"/><rect x="129" y="111" width="8" height="8" rx="2" fill="#eef3f7" stroke="#333" stroke-width="1.5"/><rect x="129" y="120" width="8" height="8" rx="2" fill="#eef3f7" stroke="#333" stroke-width="1.5"/><rect x="129" y="129" width="8" height="8" rx="2" fill="#fff" stroke="#333" stroke-width="1.5"/><text x="120" y="150" text-anchor="middle" font-size="11" fill="#333" font-family="PingFang SC, Microsoft YaHei, sans-serif">发芽率 90%</text>
</svg>
