<?xml version="1.0" encoding="UTF-8"?>
<svg xmlns="http://www.w3.org/2000/svg" viewBox="0 0 240 160">
<defs><linearGradient id="sky" x1="0" y1="0" x2="0" y2="1"><stop offset="0" stop-color="#eaf6ff"/><stop offset="1" stop-color="#e4f3df"/></linearGradient></defs><rect width="240" height="160" fill="url(#sky)"/><rect y="118" width="240" height="42" fill="#cfe9c2"/><circle cx="120" cy="80" r="45" fill="#ffd9a0" stroke="#2b2b2b" stroke-width="1.5"/><line x1="120" y1="80" x2="165.0" y2="80.0" stroke="#e74c3c" stroke-width="1"/><circle cx="165.0" cy="80.0" r="5" fill="#e74c3c" stroke="#2b2b2b" stroke-width="1.5"/><line x1="120" y1="80" x2="151.81980515339464" y2="111.81980515339464" stroke="#e74c3c" stroke-width="1"/><circle cx="151.81980515339464" cy="111.81980515339464" r="5" fill="#e74c3c" stroke="#2b2b2b" stroke-width="1.5"/><line x1="120" y1="80" x2="120.0" y2="125.0" stroke="#e74c3c" stroke-width="1"/><circle cx="120.0" cy="125.0" r="5" fill="#e74c3c" stroke="#2b2b2b" stroke-width="1.5"/><line x1="120" y1="80" x2="88.18019484660536" y2="111.81980515339464" stroke="#e74c3c" stroke-width="1"/><circle cx="88.18019484660536" cy="111.81980515339464" r="5" fill="#e74c3c" stroke="#2b2b2b" stroke-width="1.5"/><line x1="120" y1="80" x2="75.0" y2="80.0" stroke="#e74c3c" stroke-width="1"/><circle cx="75.0" cy="80.0" r="5" fill="#e74c3c" stroke="#2b2b2b" stroke-width="1.5"/><line x1="120" y1="80" x2="88.18019484660536" y2="48.18019484660536" stroke="#e74c3c" stroke-width="1"/><circle cx="88.18019484660536" cy="48.18019484660536" r="5" fill="#e74c3c" stroke="#2b2b2b" stroke-width="1.5"/><line x1="120" y1="80" x2="119.99999999999999" y2="35.0" stroke="#e74c3c" stroke-width="1"/><circle cx="119.99999999999999" cy="35.0" r="5" fill="#e74c3c" stroke="#2b2b2b" stroke-width="1.5"/><line x1="120" y1="80" x2="151.81980515339464" y2="48.18019484660535" stroke="#e74c3c" stroke-width="1"/><circle cx="151.81980515339464" cy="48.18019484660535" r="5" fill="#e74c3c" stroke="#2b2b2b" stroke-width="1.5"/><text x="120" y="134" text-anchor="middle" font-size="9" fill="#333" font-family="PingFang SC, Microsoft YaHei, sans-serif">封闭：棵数=间隔数</text><circle cx="218" cy="26" r="12" fill="#ffe08a" stroke="#2b2b2b" stroke-width="1.5"/><circle cx="214" cy="22" r="12" fill="#ffe08a" stroke="#2b2b2b" stroke-width="1.5"/><line x1="210" y1="38" x2="200" y2="46" stroke="#caa" stroke-width="1"/><line x1="226" y1="38" x2="236" y2="46" stroke="#caa" stroke-width="1"/><circle cx="28" cy="120" r="11" fill="#ffd9a0" stroke="#2b2b2b" stroke-width="1.5"/><rect x="18" y="131" width="20" height="22" rx="6" fill="#5dade2" stroke="#2b2b2b" stroke-width="1.5"/>
</svg>
