<?xml version="1.0" encoding="UTF-8"?>
<svg xmlns="http://www.w3.org/2000/svg" viewBox="0 0 240 160">
<rect width="240" height="160" fill="#ffffff"/><circle cx="120" cy="80" r="45" fill="#eef3f7" stroke="#333" stroke-width="1.5"/><line x1="120" y1="80" x2="165.0" y2="80.0" stroke="#e74c3c" stroke-width="1"/><circle cx="165.0" cy="80.0" r="5" fill="#e74c3c" stroke="#333" stroke-width="1.5"/><line x1="120" y1="80" x2="151.81980515339464" y2="111.81980515339464" stroke="#e74c3c" stroke-width="1"/><circle cx="151.81980515339464" cy="111.81980515339464" r="5" fill="#e74c3c" stroke="#333" stroke-width="1.5"/><line x1="120" y1="80" x2="120.0" y2="125.0" stroke="#e74c3c" stroke-width="1"/><circle cx="120.0" cy="125.0" r="5" fill="#e74c3c" stroke="#333" stroke-width="1.5"/><line x1="120" y1="80" x2="88.18019484660536" y2="111.81980515339464" stroke="#e74c3c" stroke-width="1"/><circle cx="88.18019484660536" cy="111.81980515339464" r="5" fill="#e74c3c" stroke="#333" stroke-width="1.5"/><line x1="120" y1="80" x2="75.0" y2="80.0" stroke="#e74c3c" stroke-width="1"/><circle cx="75.0" cy="80.0" r="5" fill="#e74c3c" stroke="#333" stroke-width="1.5"/><line x1="120" y1="80" x2="88.18019484660536" y2="48.18019484660536" stroke="#e74c3c" stroke-width="1"/><circle cx="88.18019484660536" cy="48.18019484660536" r="5" fill="#e74c3c" stroke="#333" stroke-width="1.5"/><line x1="120" y1="80" x2="119.99999999999999" y2="35.0" stroke="#e74c3c" stroke-width="1"/><circle cx="119.99999999999999" cy="35.0" r="5" fill="#e74c3c" stroke="#333" stroke-width="1.5"/><line x1="120" y1="80" x2="151.81980515339464" y2="48.18019484660535" stroke="#e74c3c" stroke-width="1"/><circle cx="151.81980515339464" cy="48.18019484660535" r="5" fill="#e74c3c" stroke="#333" stroke-width="1.5"/><text x="120" y="134" text-anchor="middle" font-size="9" fill="#333" font-family="PingFang SC, Microsoft YaHei, sans-serif">封闭：棵数=间隔数</text>
</svg>
