<?xml version="1.0" encoding="UTF-8"?>
<svg xmlns="http://www.w3.org/2000/svg" viewBox="0 0 240 160">
<defs><linearGradient id="sky" x1="0" y1="0" x2="0" y2="1"><stop offset="0" stop-color="#eaf6ff"/><stop offset="1" stop-color="#e4f3df"/></linearGradient></defs><rect width="240" height="160" fill="url(#sky)"/><rect y="118" width="240" height="42" fill="#cfe9c2"/><circle cx="120" cy="80" r="44" fill="#bfe6ff" stroke="#2b2b2b" stroke-width="1.5"/><line x1="120.0" y1="42.0" x2="120.0" y2="36.0" stroke="#2b2b2b" stroke-width="1"/><line x1="139.0" y1="47.09103465619133" x2="142.0" y2="41.8948822334847" stroke="#2b2b2b" stroke-width="1"/><line x1="152.9089653438087" y1="61.0" x2="158.10511776651532" y2="58.0" stroke="#2b2b2b" stroke-width="1"/><line x1="158.0" y1="80.0" x2="164.0" y2="80.0" stroke="#2b2b2b" stroke-width="1"/><line x1="152.9089653438087" y1="99.0" x2="158.10511776651532" y2="102.0" stroke="#2b2b2b" stroke-width="1"/><line x1="139.0" y1="112.90896534380866" x2="142.0" y2="118.10511776651529" stroke="#2b2b2b" stroke-width="1"/><line x1="120.0" y1="118.0" x2="120.0" y2="124.0" stroke="#2b2b2b" stroke-width="1"/><line x1="101.0" y1="112.90896534380867" x2="98.00000000000001" y2="118.1051177665153" stroke="#2b2b2b" stroke-width="1"/><line x1="87.09103465619133" y1="99.0" x2="81.8948822334847" y2="102.0" stroke="#2b2b2b" stroke-width="1"/><line x1="82.0" y1="80.0" x2="76.0" y2="80.0" stroke="#2b2b2b" stroke-width="1"/><line x1="87.09103465619134" y1="61.0" x2="81.89488223348471" y2="58.0" stroke="#2b2b2b" stroke-width="1"/><line x1="100.99999999999999" y1="47.09103465619134" x2="97.99999999999997" y2="41.89488223348471" stroke="#2b2b2b" stroke-width="1"/><line x1="120" y1="80" x2="120" y2="50" stroke="#e74c3c" stroke-width="2"/><line x1="120" y1="80" x2="150" y2="80" stroke="#2b2b2b" stroke-width="2"/><circle cx="218" cy="26" r="12" fill="#ffe08a" stroke="#2b2b2b" stroke-width="1.5"/><circle cx="214" cy="22" r="12" fill="#ffe08a" stroke="#2b2b2b" stroke-width="1.5"/><line x1="210" y1="38" x2="200" y2="46" stroke="#caa" stroke-width="1"/><line x1="226" y1="38" x2="236" y2="46" stroke="#caa" stroke-width="1"/><circle cx="28" cy="120" r="11" fill="#ffd9a0" stroke="#2b2b2b" stroke-width="1.5"/><rect x="18" y="131" width="20" height="22" rx="6" fill="#5dade2" stroke="#2b2b2b" stroke-width="1.5"/>
</svg>
