<?xml version="1.0" encoding="UTF-8"?>
<svg xmlns="http://www.w3.org/2000/svg" viewBox="0 0 240 160">
<defs><linearGradient id="sky" x1="0" y1="0" x2="0" y2="1"><stop offset="0" stop-color="#eaf6ff"/><stop offset="1" stop-color="#e4f3df"/></linearGradient></defs><rect width="240" height="160" fill="url(#sky)"/><rect y="118" width="240" height="42" fill="#cfe9c2"/><rect x="55" y="50" width="10" height="10" rx="2" fill="#c8f0c8" stroke="#2b2b2b" stroke-width="1.5"/><rect x="55" y="61" width="10" height="10" rx="2" fill="#fff" stroke="#2b2b2b" stroke-width="1.5"/><rect x="55" y="72" width="10" height="10" rx="2" fill="#fff" stroke="#2b2b2b" stroke-width="1.5"/><rect x="55" y="83" width="10" height="10" rx="2" fill="#fff" stroke="#2b2b2b" stroke-width="1.5"/><rect x="55" y="94" width="10" height="10" rx="2" fill="#fff" stroke="#2b2b2b" stroke-width="1.5"/><rect x="55" y="105" width="10" height="10" rx="2" fill="#fff" stroke="#2b2b2b" stroke-width="1.5"/><rect x="55" y="116" width="10" height="10" rx="2" fill="#fff" stroke="#2b2b2b" stroke-width="1.5"/><rect x="55" y="127" width="10" height="10" rx="2" fill="#fff" stroke="#2b2b2b" stroke-width="1.5"/><rect x="55" y="138" width="10" height="10" rx="2" fill="#fff" stroke="#2b2b2b" stroke-width="1.5"/><rect x="55" y="149" width="10" height="10" rx="2" fill="#fff" stroke="#2b2b2b" stroke-width="1.5"/><rect x="66" y="50" width="10" height="10" rx="2" fill="#fff" stroke="#2b2b2b" stroke-width="1.5"/><rect x="66" y="61" width="10" height="10" rx="2" fill="#fff" stroke="#2b2b2b" stroke-width="1.5"/><rect x="66" y="72" width="10" height="10" rx="2" fill="#fff" stroke="#2b2b2b" stroke-width="1.5"/><rect x="66" y="83" width="10" height="10" rx="2" fill="#fff" stroke="#2b2b2b" stroke-width="1.5"/><rect x="66" y="94" width="10" height="10" rx="2" fill="#fff" stroke="#2b2b2b" stroke-width="1.5"/><rect x="66" y="105" width="10" height="10" rx="2" fill="#fff" stroke="#2b2b2b" stroke-width="1.5"/><rect x="66" y="116" width="10" height="10" rx="2" fill="#fff" stroke="#2b2b2b" stroke-width="1.5"/><rect x="66" y="127" width="10" height="10" rx="2" fill="#fff" stroke="#2b2b2b" stroke-width="1.5"/><rect x="66" y="138" width="10" height="10" rx="2" fill="#fff" stroke="#2b2b2b" stroke-width="1.5"/><rect x="66" y="149" width="10" height="10" rx="2" fill="#fff" stroke="#2b2b2b" stroke-width="1.5"/><rect x="77" y="50" width="10" height="10" rx="2" fill="#fff" stroke="#2b2b2b" stroke-width="1.5"/><rect x="77" y="61" width="10" height="10" rx="2" fill="#fff" stroke="#2b2b2b" stroke-width="1.5"/><rect x="77" y="72" width="10" height="10" rx="2" fill="#fff" stroke="#2b2b2b" stroke-width="1.5"/><rect x="77" y="83" width="10" height="10" rx="2" fill="#fff" stroke="#2b2b2b" stroke-width="1.5"/><rect x="77" y="94" width="10" height="10" rx="2" fill="#fff" stroke="#2b2b2b" stroke-width="1.5"/><rect x="77" y="105" width="10" height="10" rx="2" fill="#fff" stroke="#2b2b2b" stroke-width="1.5"/><rect x="77" y="116" width="10" height="10" rx="2" fill="#fff" stroke="#2b2b2b" stroke-width="1.5"/><rect x="77" y="127" width="10" height="10" rx="2" fill="#fff" stroke="#2b2b2b" stroke-width="1.5"/><rect x="77" y="138" width="10" height="10" rx="2" fill="#fff" stroke="#2b2b2b" stroke-width="1.5"/><rect x="77" y="149" width="10" height="10" rx="2" fill="#fff" stroke="#2b2b2b" stroke-width="1.5"/><rect x="88" y="50" width="10" height="10" rx="2" fill="#fff" stroke="#2b2b2b" stroke-width="1.5"/><rect x="88" y="61" width="10" height="10" rx="2" fill="#fff" stroke="#2b2b2b" stroke-width="1.5"/><rect x="88" y="72" width="10" height="10" rx="2" fill="#fff" stroke="#2b2b2b" stroke-width="1.5"/><rect x="88" y="83" width="10" height="10" rx="2" fill="#fff" stroke="#2b2b2b" stroke-width="1.5"/><rect x="88" y="94" width="10" height="10" rx="2" fill="#fff" stroke="#2b2b2b" stroke-width="1.5"/><rect x="88" y="105" width="10" height="10" rx="2" fill="#fff" stroke="#2b2b2b" stroke-width="1.5"/><rect x="88" y="116" width="10" height="10" rx="2" fill="#fff" stroke="#2b2b2b" stroke-width="1.5"/><rect x="88" y="127" width="10" height="10" rx="2" fill="#fff" stroke="#2b2b2b" stroke-width="1.5"/><rect x="88" y="138" width="10" height="10" rx="2" fill="#fff" stroke="#2b2b2b" stroke-width="1.5"/><rect x="88" y="149" width="10" height="10" rx="2" fill="#fff" stroke="#2b2b2b" stroke-width="1.5"/><rect x="99" y="50" width="10" height="10" rx="2" fill="#fff" stroke="#2b2b2b" stroke-width="1.5"/><rect x="99" y="61" width="10" height="10" rx="2" fill="#fff" stroke="#2b2b2b" stroke-width="1.5"/><rect x="99" y="72" width="10" height="10" rx="2" fill="#fff" stroke="#2b2b2b" stroke-width="1.5"/><rect x="99" y="83" width="10" height="10" rx="2" fill="#fff" stroke="#2b2b2b" stroke-width="1.5"/><rect x="99" y="94" width="10" height="10" rx="2" fill="#fff" stroke="#2b2b2b" stroke-width="1.5"/><rect x="99" y="105" width="10" height="10" rx="2" fill="#fff" stroke="#2b2b2b" stroke-width="1.5"/><rect x="99" y="116" width="10" height="10" rx="2" fill="#fff" stroke="#2b2b2b" stroke-width="1.5"/><rect x="99" y="127" width="10" height="10" rx="2" fill="#fff" stroke="#2b2b2b" stroke-width="1.5"/><rect x="99" y="138" width="10" height="10" rx="2" fill="#fff" stroke="#2b2b2b" stroke-width="1.5"/><rect x="99" y="149" width="10" height="10" rx="2" fill="#fff" stroke="#2b2b2b" stroke-width="1.5"/><rect x="110" y="50" width="10" height="10" rx="2" fill="#fff" stroke="#2b2b2b" stroke-width="1.5"/><rect x="110" y="61" width="10" height="10" rx="2" fill="#fff" stroke="#2b2b2b" stroke-width="1.5"/><rect x="110" y="72" width="10" height="10" rx="2" fill="#fff" stroke="#2b2b2b" stroke-width="1.5"/><rect x="110" y="83" width="10" height="10" rx="2" fill="#fff" stroke="#2b2b2b" stroke-width="1.5"/><rect x="110" y="94" width="10" height="10" rx="2" fill="#fff" stroke="#2b2b2b" stroke-width="1.5"/><rect x="110" y="105" width="10" height="10" rx="2" fill="#fff" stroke="#2b2b2b" stroke-width="1.5"/><rect x="110" y="116" width="10" height="10" rx="2" fill="#fff" stroke="#2b2b2b" stroke-width="1.5"/><rect x="110" y="127" width="10" height="10" rx="2" fill="#fff" stroke="#2b2b2b" stroke-width="1.5"/><rect x="110" y="138" width="10" height="10" rx="2" fill="#fff" stroke="#2b2b2b" stroke-width="1.5"/><rect x="110" y="149" width="10" height="10" rx="2" fill="#fff" stroke="#2b2b2b" stroke-width="1.5"/><rect x="121" y="50" width="10" height="10" rx="2" fill="#fff" stroke="#2b2b2b" stroke-width="1.5"/><rect x="121" y="61" width="10" height="10" rx="2" fill="#fff" stroke="#2b2b2b" stroke-width="1.5"/><rect x="121" y="72" width="10" height="10" rx="2" fill="#fff" stroke="#2b2b2b" stroke-width="1.5"/><rect x="121" y="83" width="10" height="10" rx="2" fill="#fff" stroke="#2b2b2b" stroke-width="1.5"/><rect x="121" y="94" width="10" height="10" rx="2" fill="#fff" stroke="#2b2b2b" stroke-width="1.5"/><rect x="121" y="105" width="10" height="10" rx="2" fill="#fff" stroke="#2b2b2b" stroke-width="1.5"/><rect x="121" y="116" width="10" height="10" rx="2" fill="#fff" stroke="#2b2b2b" stroke-width="1.5"/><rect x="121" y="127" width="10" height="10" rx="2" fill="#fff" stroke="#2b2b2b" stroke-width="1.5"/><rect x="121" y="138" width="10" height="10" rx="2" fill="#fff" stroke="#2b2b2b" stroke-width="1.5"/><rect x="121" y="149" width="10" height="10" rx="2" fill="#fff" stroke="#2b2b2b" stroke-width="1.5"/><rect x="132" y="50" width="10" height="10" rx="2" fill="#fff" stroke="#2b2b2b" stroke-width="1.5"/><rect x="132" y="61" width="10" height="10" rx="2" fill="#fff" stroke="#2b2b2b" stroke-width="1.5"/><rect x="132" y="72" width="10" height="10" rx="2" fill="#fff" stroke="#2b2b2b" stroke-width="1.5"/><rect x="132" y="83" width="10" height="10" rx="2" fill="#fff" stroke="#2b2b2b" stroke-width="1.5"/><rect x="132" y="94" width="10" height="10" rx="2" fill="#fff" stroke="#2b2b2b" stroke-width="1.5"/><rect x="132" y="105" width="10" height="10" rx="2" fill="#fff" stroke="#2b2b2b" stroke-width="1.5"/><rect x="132" y="116" width="10" height="10" rx="2" fill="#fff" stroke="#2b2b2b" stroke-width="1.5"/><rect x="132" y="127" width="10" height="10" rx="2" fill="#fff" stroke="#2b2b2b" stroke-width="1.5"/><rect x="132" y="138" width="10" height="10" rx="2" fill="#fff" stroke="#2b2b2b" stroke-width="1.5"/><rect x="132" y="149" width="10" height="10" rx="2" fill="#fff" stroke="#2b2b2b" stroke-width="1.5"/><rect x="143" y="50" width="10" height="10" rx="2" fill="#fff" stroke="#2b2b2b" stroke-width="1.5"/><rect x="143" y="61" width="10" height="10" rx="2" fill="#fff" stroke="#2b2b2b" stroke-width="1.5"/><rect x="143" y="72" width="10" height="10" rx="2" fill="#fff" stroke="#2b2b2b" stroke-width="1.5"/><rect x="143" y="83" width="10" height="10" rx="2" fill="#fff" stroke="#2b2b2b" stroke-width="1.5"/><rect x="143" y="94" width="10" height="10" rx="2" fill="#fff" stroke="#2b2b2b" stroke-width="1.5"/><rect x="143" y="105" width="10" height="10" rx="2" fill="#fff" stroke="#2b2b2b" stroke-width="1.5"/><rect x="143" y="116" width="10" height="10" rx="2" fill="#fff" stroke="#2b2b2b" stroke-width="1.5"/><rect x="143" y="127" width="10" height="10" rx="2" fill="#fff" stroke="#2b2b2b" stroke-width="1.5"/><rect x="143" y="138" width="10" height="10" rx="2" fill="#fff" stroke="#2b2b2b" stroke-width="1.5"/><rect x="143" y="149" width="10" height="10" rx="2" fill="#fff" stroke="#2b2b2b" stroke-width="1.5"/><rect x="154" y="50" width="10" height="10" rx="2" fill="#fff" stroke="#2b2b2b" stroke-width="1.5"/><rect x="154" y="61" width="10" height="10" rx="2" fill="#fff" stroke="#2b2b2b" stroke-width="1.5"/><rect x="154" y="72" width="10" height="10" rx="2" fill="#fff" stroke="#2b2b2b" stroke-width="1.5"/><rect x="154" y="83" width="10" height="10" rx="2" fill="#fff" stroke="#2b2b2b" stroke-width="1.5"/><rect x="154" y="94" width="10" height="10" rx="2" fill="#fff" stroke="#2b2b2b" stroke-width="1.5"/><rect x="154" y="105" width="10" height="10" rx="2" fill="#fff" stroke="#2b2b2b" stroke-width="1.5"/><rect x="154" y="116" width="10" height="10" rx="2" fill="#fff" stroke="#2b2b2b" stroke-width="1.5"/><rect x="154" y="127" width="10" height="10" rx="2" fill="#fff" stroke="#2b2b2b" stroke-width="1.5"/><rect x="154" y="138" width="10" height="10" rx="2" fill="#fff" stroke="#2b2b2b" stroke-width="1.5"/><rect x="154" y="149" width="10" height="10" rx="2" fill="#fff" stroke="#2b2b2b" stroke-width="1.5"/><text x="120" y="150" text-anchor="middle" font-size="10" fill="#333" font-family="PingFang SC, Microsoft YaHei, sans-serif">0.3 = 0.30（大小不变）</text><circle cx="218" cy="26" r="12" fill="#ffe08a" stroke="#2b2b2b" stroke-width="1.5"/><circle cx="214" cy="22" r="12" fill="#ffe08a" stroke="#2b2b2b" stroke-width="1.5"/><line x1="210" y1="38" x2="200" y2="46" stroke="#caa" stroke-width="1"/><line x1="226" y1="38" x2="236" y2="46" stroke="#caa" stroke-width="1"/><circle cx="28" cy="120" r="11" fill="#ffd9a0" stroke="#2b2b2b" stroke-width="1.5"/><rect x="18" y="131" width="20" height="22" rx="6" fill="#5dade2" stroke="#2b2b2b" stroke-width="1.5"/>
</svg>
