<?xml version="1.0" encoding="UTF-8"?>
<svg xmlns="http://www.w3.org/2000/svg" viewBox="0 0 240 160">
<rect width="240" height="160" fill="#ffffff"/><rect x="55" y="50" width="10" height="10" rx="2" fill="#eef3f7" stroke="#333" stroke-width="1.5"/><rect x="55" y="61" width="10" height="10" rx="2" fill="#fff" stroke="#333" stroke-width="1.5"/><rect x="55" y="72" width="10" height="10" rx="2" fill="#fff" stroke="#333" stroke-width="1.5"/><rect x="55" y="83" width="10" height="10" rx="2" fill="#fff" stroke="#333" stroke-width="1.5"/><rect x="55" y="94" width="10" height="10" rx="2" fill="#fff" stroke="#333" stroke-width="1.5"/><rect x="55" y="105" width="10" height="10" rx="2" fill="#fff" stroke="#333" stroke-width="1.5"/><rect x="55" y="116" width="10" height="10" rx="2" fill="#fff" stroke="#333" stroke-width="1.5"/><rect x="55" y="127" width="10" height="10" rx="2" fill="#fff" stroke="#333" stroke-width="1.5"/><rect x="55" y="138" width="10" height="10" rx="2" fill="#fff" stroke="#333" stroke-width="1.5"/><rect x="55" y="149" width="10" height="10" rx="2" fill="#fff" stroke="#333" stroke-width="1.5"/><rect x="66" y="50" width="10" height="10" rx="2" fill="#fff" stroke="#333" stroke-width="1.5"/><rect x="66" y="61" width="10" height="10" rx="2" fill="#fff" stroke="#333" stroke-width="1.5"/><rect x="66" y="72" width="10" height="10" rx="2" fill="#fff" stroke="#333" stroke-width="1.5"/><rect x="66" y="83" width="10" height="10" rx="2" fill="#fff" stroke="#333" stroke-width="1.5"/><rect x="66" y="94" width="10" height="10" rx="2" fill="#fff" stroke="#333" stroke-width="1.5"/><rect x="66" y="105" width="10" height="10" rx="2" fill="#fff" stroke="#333" stroke-width="1.5"/><rect x="66" y="116" width="10" height="10" rx="2" fill="#fff" stroke="#333" stroke-width="1.5"/><rect x="66" y="127" width="10" height="10" rx="2" fill="#fff" stroke="#333" stroke-width="1.5"/><rect x="66" y="138" width="10" height="10" rx="2" fill="#fff" stroke="#333" stroke-width="1.5"/><rect x="66" y="149" width="10" height="10" rx="2" fill="#fff" stroke="#333" stroke-width="1.5"/><rect x="77" y="50" width="10" height="10" rx="2" fill="#fff" stroke="#333" stroke-width="1.5"/><rect x="77" y="61" width="10" height="10" rx="2" fill="#fff" stroke="#333" stroke-width="1.5"/><rect x="77" y="72" width="10" height="10" rx="2" fill="#fff" stroke="#333" stroke-width="1.5"/><rect x="77" y="83" width="10" height="10" rx="2" fill="#fff" stroke="#333" stroke-width="1.5"/><rect x="77" y="94" width="10" height="10" rx="2" fill="#fff" stroke="#333" stroke-width="1.5"/><rect x="77" y="105" width="10" height="10" rx="2" fill="#fff" stroke="#333" stroke-width="1.5"/><rect x="77" y="116" width="10" height="10" rx="2" fill="#fff" stroke="#333" stroke-width="1.5"/><rect x="77" y="127" width="10" height="10" rx="2" fill="#fff" stroke="#333" stroke-width="1.5"/><rect x="77" y="138" width="10" height="10" rx="2" fill="#fff" stroke="#333" stroke-width="1.5"/><rect x="77" y="149" width="10" height="10" rx="2" fill="#fff" stroke="#333" stroke-width="1.5"/><rect x="88" y="50" width="10" height="10" rx="2" fill="#fff" stroke="#333" stroke-width="1.5"/><rect x="88" y="61" width="10" height="10" rx="2" fill="#fff" stroke="#333" stroke-width="1.5"/><rect x="88" y="72" width="10" height="10" rx="2" fill="#fff" stroke="#333" stroke-width="1.5"/><rect x="88" y="83" width="10" height="10" rx="2" fill="#fff" stroke="#333" stroke-width="1.5"/><rect x="88" y="94" width="10" height="10" rx="2" fill="#fff" stroke="#333" stroke-width="1.5"/><rect x="88" y="105" width="10" height="10" rx="2" fill="#fff" stroke="#333" stroke-width="1.5"/><rect x="88" y="116" width="10" height="10" rx="2" fill="#fff" stroke="#333" stroke-width="1.5"/><rect x="88" y="127" width="10" height="10" rx="2" fill="#fff" stroke="#333" stroke-width="1.5"/><rect x="88" y="138" width="10" height="10" rx="2" fill="#fff" stroke="#333" stroke-width="1.5"/><rect x="88" y="149" width="10" height="10" rx="2" fill="#fff" stroke="#333" stroke-width="1.5"/><rect x="99" y="50" width="10" height="10" rx="2" fill="#fff" stroke="#333" stroke-width="1.5"/><rect x="99" y="61" width="10" height="10" rx="2" fill="#fff" stroke="#333" stroke-width="1.5"/><rect x="99" y="72" width="10" height="10" rx="2" fill="#fff" stroke="#333" stroke-width="1.5"/><rect x="99" y="83" width="10" height="10" rx="2" fill="#fff" stroke="#333" stroke-width="1.5"/><rect x="99" y="94" width="10" height="10" rx="2" fill="#fff" stroke="#333" stroke-width="1.5"/><rect x="99" y="105" width="10" height="10" rx="2" fill="#fff" stroke="#333" stroke-width="1.5"/><rect x="99" y="116" width="10" height="10" rx="2" fill="#fff" stroke="#333" stroke-width="1.5"/><rect x="99" y="127" width="10" height="10" rx="2" fill="#fff" stroke="#333" stroke-width="1.5"/><rect x="99" y="138" width="10" height="10" rx="2" fill="#fff" stroke="#333" stroke-width="1.5"/><rect x="99" y="149" width="10" height="10" rx="2" fill="#fff" stroke="#333" stroke-width="1.5"/><rect x="110" y="50" width="10" height="10" rx="2" fill="#fff" stroke="#333" stroke-width="1.5"/><rect x="110" y="61" width="10" height="10" rx="2" fill="#fff" stroke="#333" stroke-width="1.5"/><rect x="110" y="72" width="10" height="10" rx="2" fill="#fff" stroke="#333" stroke-width="1.5"/><rect x="110" y="83" width="10" height="10" rx="2" fill="#fff" stroke="#333" stroke-width="1.5"/><rect x="110" y="94" width="10" height="10" rx="2" fill="#fff" stroke="#333" stroke-width="1.5"/><rect x="110" y="105" width="10" height="10" rx="2" fill="#fff" stroke="#333" stroke-width="1.5"/><rect x="110" y="116" width="10" height="10" rx="2" fill="#fff" stroke="#333" stroke-width="1.5"/><rect x="110" y="127" width="10" height="10" rx="2" fill="#fff" stroke="#333" stroke-width="1.5"/><rect x="110" y="138" width="10" height="10" rx="2" fill="#fff" stroke="#333" stroke-width="1.5"/><rect x="110" y="149" width="10" height="10" rx="2" fill="#fff" stroke="#333" stroke-width="1.5"/><rect x="121" y="50" width="10" height="10" rx="2" fill="#fff" stroke="#333" stroke-width="1.5"/><rect x="121" y="61" width="10" height="10" rx="2" fill="#fff" stroke="#333" stroke-width="1.5"/><rect x="121" y="72" width="10" height="10" rx="2" fill="#fff" stroke="#333" stroke-width="1.5"/><rect x="121" y="83" width="10" height="10" rx="2" fill="#fff" stroke="#333" stroke-width="1.5"/><rect x="121" y="94" width="10" height="10" rx="2" fill="#fff" stroke="#333" stroke-width="1.5"/><rect x="121" y="105" width="10" height="10" rx="2" fill="#fff" stroke="#333" stroke-width="1.5"/><rect x="121" y="116" width="10" height="10" rx="2" fill="#fff" stroke="#333" stroke-width="1.5"/><rect x="121" y="127" width="10" height="10" rx="2" fill="#fff" stroke="#333" stroke-width="1.5"/><rect x="121" y="138" width="10" height="10" rx="2" fill="#fff" stroke="#333" stroke-width="1.5"/><rect x="121" y="149" width="10" height="10" rx="2" fill="#fff" stroke="#333" stroke-width="1.5"/><rect x="132" y="50" width="10" height="10" rx="2" fill="#fff" stroke="#333" stroke-width="1.5"/><rect x="132" y="61" width="10" height="10" rx="2" fill="#fff" stroke="#333" stroke-width="1.5"/><rect x="132" y="72" width="10" height="10" rx="2" fill="#fff" stroke="#333" stroke-width="1.5"/><rect x="132" y="83" width="10" height="10" rx="2" fill="#fff" stroke="#333" stroke-width="1.5"/><rect x="132" y="94" width="10" height="10" rx="2" fill="#fff" stroke="#333" stroke-width="1.5"/><rect x="132" y="105" width="10" height="10" rx="2" fill="#fff" stroke="#333" stroke-width="1.5"/><rect x="132" y="116" width="10" height="10" rx="2" fill="#fff" stroke="#333" stroke-width="1.5"/><rect x="132" y="127" width="10" height="10" rx="2" fill="#fff" stroke="#333" stroke-width="1.5"/><rect x="132" y="138" width="10" height="10" rx="2" fill="#fff" stroke="#333" stroke-width="1.5"/><rect x="132" y="149" width="10" height="10" rx="2" fill="#fff" stroke="#333" stroke-width="1.5"/><rect x="143" y="50" width="10" height="10" rx="2" fill="#fff" stroke="#333" stroke-width="1.5"/><rect x="143" y="61" width="10" height="10" rx="2" fill="#fff" stroke="#333" stroke-width="1.5"/><rect x="143" y="72" width="10" height="10" rx="2" fill="#fff" stroke="#333" stroke-width="1.5"/><rect x="143" y="83" width="10" height="10" rx="2" fill="#fff" stroke="#333" stroke-width="1.5"/><rect x="143" y="94" width="10" height="10" rx="2" fill="#fff" stroke="#333" stroke-width="1.5"/><rect x="143" y="105" width="10" height="10" rx="2" fill="#fff" stroke="#333" stroke-width="1.5"/><rect x="143" y="116" width="10" height="10" rx="2" fill="#fff" stroke="#333" stroke-width="1.5"/><rect x="143" y="127" width="10" height="10" rx="2" fill="#fff" stroke="#333" stroke-width="1.5"/><rect x="143" y="138" width="10" height="10" rx="2" fill="#fff" stroke="#333" stroke-width="1.5"/><rect x="143" y="149" width="10" height="10" rx="2" fill="#fff" stroke="#333" stroke-width="1.5"/><rect x="154" y="50" width="10" height="10" rx="2" fill="#fff" stroke="#333" stroke-width="1.5"/><rect x="154" y="61" width="10" height="10" rx="2" fill="#fff" stroke="#333" stroke-width="1.5"/><rect x="154" y="72" width="10" height="10" rx="2" fill="#fff" stroke="#333" stroke-width="1.5"/><rect x="154" y="83" width="10" height="10" rx="2" fill="#fff" stroke="#333" stroke-width="1.5"/><rect x="154" y="94" width="10" height="10" rx="2" fill="#fff" stroke="#333" stroke-width="1.5"/><rect x="154" y="105" width="10" height="10" rx="2" fill="#fff" stroke="#333" stroke-width="1.5"/><rect x="154" y="116" width="10" height="10" rx="2" fill="#fff" stroke="#333" stroke-width="1.5"/><rect x="154" y="127" width="10" height="10" rx="2" fill="#fff" stroke="#333" stroke-width="1.5"/><rect x="154" y="138" width="10" height="10" rx="2" fill="#fff" stroke="#333" stroke-width="1.5"/><rect x="154" y="149" width="10" height="10" rx="2" fill="#fff" stroke="#333" stroke-width="1.5"/><text x="120" y="150" text-anchor="middle" font-size="10" fill="#333" font-family="PingFang SC, Microsoft YaHei, sans-serif">0.3 = 0.30（大小不变）</text>
</svg>
