<?xml version="1.0" encoding="UTF-8"?>
<svg xmlns="http://www.w3.org/2000/svg" viewBox="0 0 240 160">
<defs><linearGradient id="sky" x1="0" y1="0" x2="0" y2="1"><stop offset="0" stop-color="#eaf6ff"/><stop offset="1" stop-color="#e4f3df"/></linearGradient></defs><rect width="240" height="160" fill="url(#sky)"/><rect y="118" width="240" height="42" fill="#cfe9c2"/><line x1="45" y1="50" x2="45" y2="110" stroke="#2b2b2b" stroke-width="1.5"/><circle cx="45" cy="50" r="5" fill="#e74c3c" stroke="#2b2b2b" stroke-width="1.5"/><line x1="75" y1="50" x2="75" y2="110" stroke="#2b2b2b" stroke-width="1.5"/><circle cx="75" cy="50" r="5" fill="#e74c3c" stroke="#2b2b2b" stroke-width="1.5"/><line x1="105" y1="50" x2="105" y2="110" stroke="#2b2b2b" stroke-width="1.5"/><circle cx="105" cy="50" r="5" fill="#e74c3c" stroke="#2b2b2b" stroke-width="1.5"/><line x1="135" y1="50" x2="135" y2="110" stroke="#2b2b2b" stroke-width="1.5"/><circle cx="135" cy="50" r="5" fill="#e74c3c" stroke="#2b2b2b" stroke-width="1.5"/><line x1="165" y1="50" x2="165" y2="110" stroke="#2b2b2b" stroke-width="1.5"/><circle cx="165" cy="50" r="5" fill="#e74c3c" stroke="#2b2b2b" stroke-width="1.5"/><line x1="195" y1="50" x2="195" y2="110" stroke="#2b2b2b" stroke-width="1.5"/><circle cx="195" cy="50" r="5" fill="#e74c3c" stroke="#2b2b2b" stroke-width="1.5"/><text x="120" y="128" text-anchor="middle" font-size="10" fill="#333" font-family="PingFang SC, Microsoft YaHei, sans-serif">棵数 = 间隔数 + 1</text><circle cx="218" cy="26" r="12" fill="#ffe08a" stroke="#2b2b2b" stroke-width="1.5"/><circle cx="214" cy="22" r="12" fill="#ffe08a" stroke="#2b2b2b" stroke-width="1.5"/><line x1="210" y1="38" x2="200" y2="46" stroke="#caa" stroke-width="1"/><line x1="226" y1="38" x2="236" y2="46" stroke="#caa" stroke-width="1"/><circle cx="28" cy="120" r="11" fill="#ffd9a0" stroke="#2b2b2b" stroke-width="1.5"/><rect x="18" y="131" width="20" height="22" rx="6" fill="#5dade2" stroke="#2b2b2b" stroke-width="1.5"/>
</svg>
