<?xml version="1.0" encoding="UTF-8"?>
<svg xmlns="http://www.w3.org/2000/svg" viewBox="0 0 240 160">
<rect width="240" height="160" fill="#ffffff"/><rect x="60" y="55" width="14" height="16" rx="2" fill="#eef3f7" stroke="#333" stroke-width="1.5"/><rect x="78" y="55" width="14" height="16" rx="2" fill="#eef3f7" stroke="#333" stroke-width="1.5"/><rect x="96" y="55" width="14" height="16" rx="2" fill="#eef3f7" stroke="#333" stroke-width="1.5"/><rect x="114" y="55" width="14" height="16" rx="2" fill="#eef3f7" stroke="#333" stroke-width="1.5"/><rect x="60" y="77" width="14" height="16" rx="2" fill="#eef3f7" stroke="#333" stroke-width="1.5"/><rect x="78" y="77" width="14" height="16" rx="2" fill="#eef3f7" stroke="#333" stroke-width="1.5"/><rect x="96" y="77" width="14" height="16" rx="2" fill="#eef3f7" stroke="#333" stroke-width="1.5"/><rect x="114" y="77" width="14" height="16" rx="2" fill="#eef3f7" stroke="#333" stroke-width="1.5"/><rect x="60" y="99" width="14" height="16" rx="2" fill="#eef3f7" stroke="#333" stroke-width="1.5"/><rect x="78" y="99" width="14" height="16" rx="2" fill="#eef3f7" stroke="#333" stroke-width="1.5"/><rect x="96" y="99" width="14" height="16" rx="2" fill="#eef3f7" stroke="#333" stroke-width="1.5"/><rect x="114" y="99" width="14" height="16" rx="2" fill="#eef3f7" stroke="#333" stroke-width="1.5"/><text x="120" y="140" text-anchor="middle" font-size="10" fill="#333" font-family="PingFang SC, Microsoft YaHei, sans-serif">3 x 4 = 12 种</text>
</svg>
