<?xml version="1.0" encoding="UTF-8"?>
<svg xmlns="http://www.w3.org/2000/svg" viewBox="0 0 240 160">
<rect width="240" height="160" fill="#ffffff"/><rect x="40" y="70" width="160" height="18" rx="2" fill="#eef3f7" stroke="#333" stroke-width="1.5"/><line x1="40" y1="66" x2="40" y2="92" stroke="#333" stroke-width="1"/><line x1="50" y1="66" x2="50" y2="92" stroke="#333" stroke-width="1"/><line x1="60" y1="66" x2="60" y2="92" stroke="#333" stroke-width="1"/><line x1="70" y1="66" x2="70" y2="92" stroke="#333" stroke-width="1"/><line x1="80" y1="66" x2="80" y2="92" stroke="#333" stroke-width="1"/><line x1="90" y1="66" x2="90" y2="92" stroke="#333" stroke-width="1"/><line x1="100" y1="66" x2="100" y2="92" stroke="#333" stroke-width="1"/><line x1="110" y1="66" x2="110" y2="92" stroke="#333" stroke-width="1"/><line x1="120" y1="66" x2="120" y2="92" stroke="#333" stroke-width="1"/><line x1="130" y1="66" x2="130" y2="92" stroke="#333" stroke-width="1"/><line x1="140" y1="66" x2="140" y2="92" stroke="#333" stroke-width="1"/><line x1="150" y1="66" x2="150" y2="92" stroke="#333" stroke-width="1"/><line x1="160" y1="66" x2="160" y2="92" stroke="#333" stroke-width="1"/><line x1="170" y1="66" x2="170" y2="92" stroke="#333" stroke-width="1"/><line x1="180" y1="66" x2="180" y2="92" stroke="#333" stroke-width="1"/><line x1="190" y1="66" x2="190" y2="92" stroke="#333" stroke-width="1"/><line x1="200" y1="66" x2="200" y2="92" stroke="#333" stroke-width="1"/><text x="120" y="116" text-anchor="middle" font-size="11" fill="#333" font-family="PingFang SC, Microsoft YaHei, sans-serif">1 米 = 100 厘米</text>
</svg>
