<?xml version="1.0" encoding="UTF-8"?>
<svg xmlns="http://www.w3.org/2000/svg" viewBox="0 0 240 160">
<rect width="240" height="160" fill="#ffffff"/><rect x="55" y="55" width="19" height="19" rx="2" fill="#eef3f7" stroke="#333" stroke-width="1.5"/><rect x="55" y="75" width="19" height="19" rx="2" fill="#fff" stroke="#333" stroke-width="1.5"/><rect x="55" y="95" width="19" height="19" rx="2" fill="#eef3f7" stroke="#333" stroke-width="1.5"/><rect x="55" y="115" width="19" height="19" rx="2" fill="#fff" stroke="#333" stroke-width="1.5"/><rect x="75" y="55" width="19" height="19" rx="2" fill="#fff" stroke="#333" stroke-width="1.5"/><rect x="75" y="75" width="19" height="19" rx="2" fill="#eef3f7" stroke="#333" stroke-width="1.5"/><rect x="75" y="95" width="19" height="19" rx="2" fill="#fff" stroke="#333" stroke-width="1.5"/><rect x="75" y="115" width="19" height="19" rx="2" fill="#eef3f7" stroke="#333" stroke-width="1.5"/><rect x="95" y="55" width="19" height="19" rx="2" fill="#eef3f7" stroke="#333" stroke-width="1.5"/><rect x="95" y="75" width="19" height="19" rx="2" fill="#fff" stroke="#333" stroke-width="1.5"/><rect x="95" y="95" width="19" height="19" rx="2" fill="#eef3f7" stroke="#333" stroke-width="1.5"/><rect x="95" y="115" width="19" height="19" rx="2" fill="#fff" stroke="#333" stroke-width="1.5"/><rect x="115" y="55" width="19" height="19" rx="2" fill="#fff" stroke="#333" stroke-width="1.5"/><rect x="115" y="75" width="19" height="19" rx="2" fill="#eef3f7" stroke="#333" stroke-width="1.5"/><rect x="115" y="95" width="19" height="19" rx="2" fill="#fff" stroke="#333" stroke-width="1.5"/><rect x="115" y="115" width="19" height="19" rx="2" fill="#eef3f7" stroke="#333" stroke-width="1.5"/><rect x="135" y="55" width="19" height="19" rx="2" fill="#eef3f7" stroke="#333" stroke-width="1.5"/><rect x="135" y="75" width="19" height="19" rx="2" fill="#fff" stroke="#333" stroke-width="1.5"/><rect x="135" y="95" width="19" height="19" rx="2" fill="#eef3f7" stroke="#333" stroke-width="1.5"/><rect x="135" y="115" width="19" height="19" rx="2" fill="#fff" stroke="#333" stroke-width="1.5"/><text x="120" y="140" text-anchor="middle" font-size="9" fill="#333" font-family="PingFang SC, Microsoft YaHei, sans-serif">平方厘米/平方分米/平方米</text>
</svg>
