<?xml version="1.0" encoding="UTF-8"?>
<svg xmlns="http://www.w3.org/2000/svg" viewBox="0 0 240 160">
<rect width="240" height="160" fill="#ffffff"/><rect x="60" y="55" width="19" height="19" rx="2" fill="#eef3f7" stroke="#333" stroke-width="1.5"/><rect x="60" y="75" width="19" height="19" rx="2" fill="#fff" stroke="#333" stroke-width="1.5"/><rect x="60" y="95" width="19" height="19" rx="2" fill="#eef3f7" stroke="#333" stroke-width="1.5"/><rect x="80" y="55" width="19" height="19" rx="2" fill="#fff" stroke="#333" stroke-width="1.5"/><rect x="80" y="75" width="19" height="19" rx="2" fill="#eef3f7" stroke="#333" stroke-width="1.5"/><rect x="80" y="95" width="19" height="19" rx="2" fill="#fff" stroke="#333" stroke-width="1.5"/><rect x="100" y="55" width="19" height="19" rx="2" fill="#eef3f7" stroke="#333" stroke-width="1.5"/><rect x="100" y="75" width="19" height="19" rx="2" fill="#fff" stroke="#333" stroke-width="1.5"/><rect x="100" y="95" width="19" height="19" rx="2" fill="#eef3f7" stroke="#333" stroke-width="1.5"/><rect x="120" y="55" width="19" height="19" rx="2" fill="#fff" stroke="#333" stroke-width="1.5"/><rect x="120" y="75" width="19" height="19" rx="2" fill="#eef3f7" stroke="#333" stroke-width="1.5"/><rect x="120" y="95" width="19" height="19" rx="2" fill="#fff" stroke="#333" stroke-width="1.5"/><rect x="140" y="55" width="19" height="19" rx="2" fill="#eef3f7" stroke="#333" stroke-width="1.5"/><rect x="140" y="75" width="19" height="19" rx="2" fill="#fff" stroke="#333" stroke-width="1.5"/><rect x="140" y="95" width="19" height="19" rx="2" fill="#eef3f7" stroke="#333" stroke-width="1.5"/><rect x="160" y="55" width="19" height="19" rx="2" fill="#fff" stroke="#333" stroke-width="1.5"/><rect x="160" y="75" width="19" height="19" rx="2" fill="#eef3f7" stroke="#333" stroke-width="1.5"/><rect x="160" y="95" width="19" height="19" rx="2" fill="#fff" stroke="#333" stroke-width="1.5"/><text x="120" y="128" text-anchor="middle" font-size="10" fill="#333" font-family="PingFang SC, Microsoft YaHei, sans-serif">表面或封闭图形的大小</text>
</svg>
