<?xml version="1.0" encoding="UTF-8"?>
<svg xmlns="http://www.w3.org/2000/svg" viewBox="0 0 240 160">
<defs><linearGradient id="sky" x1="0" y1="0" x2="0" y2="1"><stop offset="0" stop-color="#eaf6ff"/><stop offset="1" stop-color="#e4f3df"/></linearGradient></defs><rect width="240" height="160" fill="url(#sky)"/><rect y="118" width="240" height="42" fill="#cfe9c2"/><line x1="40" y1="85" x2="200" y2="85" stroke="#2b2b2b" stroke-width="1.5"/><line x1="40" y1="80" x2="40" y2="90" stroke="#2b2b2b" stroke-width="1"/><line x1="60" y1="80" x2="60" y2="90" stroke="#2b2b2b" stroke-width="1"/><line x1="80" y1="80" x2="80" y2="90" stroke="#2b2b2b" stroke-width="1"/><line x1="100" y1="80" x2="100" y2="90" stroke="#2b2b2b" stroke-width="1"/><line x1="120" y1="80" x2="120" y2="90" stroke="#2b2b2b" stroke-width="1"/><line x1="140" y1="80" x2="140" y2="90" stroke="#2b2b2b" stroke-width="1"/><line x1="160" y1="80" x2="160" y2="90" stroke="#2b2b2b" stroke-width="1"/><line x1="180" y1="80" x2="180" y2="90" stroke="#2b2b2b" stroke-width="1"/><line x1="200" y1="80" x2="200" y2="90" stroke="#2b2b2b" stroke-width="1"/><text x="120" y="116" text-anchor="middle" font-size="10" fill="#333" font-family="PingFang SC, Microsoft YaHei, sans-serif">用比例关系列式</text><circle cx="218" cy="26" r="12" fill="#ffe08a" stroke="#2b2b2b" stroke-width="1.5"/><circle cx="214" cy="22" r="12" fill="#ffe08a" stroke="#2b2b2b" stroke-width="1.5"/><line x1="210" y1="38" x2="200" y2="46" stroke="#caa" stroke-width="1"/><line x1="226" y1="38" x2="236" y2="46" stroke="#caa" stroke-width="1"/><circle cx="28" cy="120" r="11" fill="#ffd9a0" stroke="#2b2b2b" stroke-width="1.5"/><rect x="18" y="131" width="20" height="22" rx="6" fill="#5dade2" stroke="#2b2b2b" stroke-width="1.5"/>
</svg>
